<svg width="35" height="37" viewBox="0 0 35 37" fill="none" xmlns="http://www.w3.org/2000/svg">
<g id="grommet-icons:blog" clip-path="url(#clip0_189_26)">
<path id="Vector" d="M2.91602 29.2917C2.91602 28.065 3.37695 26.8887 4.19742 26.0213C5.0179 25.1539 6.13069 24.6667 7.29102 24.6667C8.45134 24.6667 9.56414 25.1539 10.3846 26.0213C11.2051 26.8887 11.666 28.065 11.666 29.2917C11.666 30.5183 11.2051 31.6947 10.3846 32.562C9.56414 33.4294 8.45134 33.9167 7.29102 33.9167C6.13069 33.9167 5.0179 33.4294 4.19742 32.562C3.37695 31.6947 2.91602 30.5183 2.91602 29.2917ZM2.91602 29.2917L2.91602 16.9583M7.29102 1.54167C21.765 1.54167 33.541 13.9906 33.541 29.2917M26.2493 29.2917C26.2493 18.241 17.7443 9.25 7.29102 9.25M18.9577 29.2917C18.9577 22.4914 13.7237 16.9583 7.29102 16.9583" stroke="#D9D9D9" stroke-width="2"/>
</g>
<defs>
<clipPath id="clip0_189_26">
<rect width="35" height="37" fill="white"/>
</clipPath>
</defs>
</svg>
