<svg width="226" height="23" viewBox="0 0 226 23" fill="none" xmlns="http://www.w3.org/2000/svg">
<path d="M1.3877 22C0.655273 22 0.289062 21.6826 0.289062 21.0479L0.289062 20.3447C0.289062 19.8369 0.523437 19.334 0.992187 18.8359L5.37207 14.2217C6.69043 12.8252 7.89648 11.585 8.99023 10.501C10.084 9.40723 10.6309 8.30371 10.6309 7.19043C10.6309 6.07715 10.3525 5.26172 9.7959 4.74414C9.24902 4.2168 8.55078 3.95313 7.70117 3.95313C6.35352 3.95313 5.41602 4.26563 4.88867 4.89063C4.36133 5.51563 3.98047 6.18457 3.74609 6.89746C3.52148 7.59082 3.11133 7.83984 2.51562 7.64453L1.03613 7.14648C0.557617 6.98047 0.420898 6.52148 0.625977 5.76953C1.00684 4.37305 1.7832 3.17676 2.95508 2.18066C4.12695 1.1748 5.86523 0.671875 8.16992 0.671875C10.5723 0.671875 12.3154 1.29199 13.3994 2.53223C14.4834 3.7627 15.0254 5.10059 15.0254 6.5459C15.0254 8.44043 14.2344 10.1055 12.6523 11.541C11.0703 12.9668 9.63477 14.3584 8.3457 15.7158L5.85547 18.3379L5.85547 18.4258C6.44141 18.3867 6.92969 18.3672 7.32031 18.3672L14.1611 18.3672C14.8936 18.3672 15.2598 18.6846 15.2598 19.3193L15.2598 21.0479C15.2598 21.6826 14.8936 22 14.1611 22L1.3877 22ZM18.4385 17.4297C17.8037 17.4297 17.4863 17.1123 17.4863 16.4775L17.4863 14.5439C17.4863 13.9873 17.6328 13.5039 17.9258 13.0938L26.041 1.66797C26.4023 1.16016 26.8564 0.90625 27.4033 0.90625L29.5566 0.90625C30.2012 0.90625 30.5234 1.22363 30.5234 1.8584L30.5234 13.7969L32.2959 13.7969C32.9307 13.7969 33.248 14.1143 33.248 14.749L33.248 16.4775C33.248 17.1123 32.9355 17.4297 32.3105 17.4297L30.5234 17.4297L30.5234 21.0479C30.5234 21.6826 30.2061 22 29.5713 22L27.374 22C26.7393 22 26.4219 21.6826 26.4219 21.0479L26.4219 17.4297L18.4385 17.4297ZM21.5732 13.7969L26.4219 13.7969L26.4219 8.12793C26.4219 7.7373 26.4414 7.34668 26.4805 6.95605L26.4219 6.95605L21.5732 13.7969ZM37.9355 22C37.252 22 36.9102 21.6338 36.9102 20.9014L36.9102 18.9385C36.9102 18.2061 37.252 17.8398 37.9355 17.8398L40.1621 17.8398C40.8457 17.8398 41.1875 18.2061 41.1875 18.9385L41.1875 20.9014C41.1875 21.6338 40.8457 22 40.1621 22L37.9355 22ZM45.8896 20.5059C45.5088 20.1836 45.4795 19.7246 45.8018 19.1289L46.4756 17.8984C46.7979 17.3027 47.3203 17.2588 48.043 17.7666C48.6484 18.1963 49.332 18.5479 50.0937 18.8213C50.8555 19.085 51.7051 19.2168 52.6426 19.2168C53.9316 19.2168 54.8545 18.8701 55.4111 18.1768C55.9678 17.4736 56.2461 16.6875 56.2461 15.8184C56.2461 14.9297 55.9141 14.1338 55.25 13.4307C54.5957 12.7178 53.668 12.3613 52.4668 12.3613L51.3389 12.3613C50.7041 12.3613 50.3867 12.1025 50.3867 11.585L50.3867 9.97363C50.3867 9.43652 50.7041 9.16797 51.3389 9.16797L52.2178 9.16797C53.1162 9.16797 53.9072 8.88965 54.5908 8.33301C55.2842 7.77637 55.6309 7.07813 55.6309 6.23828C55.6309 5.58398 55.4014 5.04199 54.9424 4.6123C54.4932 4.17285 53.7559 3.95313 52.7305 3.95313C51.7637 3.95313 50.9287 4.09473 50.2256 4.37793C49.5225 4.66113 48.9658 5.00293 48.5557 5.40332C47.9697 5.97949 47.4668 5.95508 47.0469 5.33008L46.1973 4.08496C45.875 3.61621 45.9727 3.1377 46.4902 2.64941C47.1934 1.97559 48.1016 1.47754 49.2148 1.15527C50.3281 0.833008 51.417 0.671875 52.4814 0.671875C54.9912 0.671875 56.8564 1.1748 58.0771 2.18066C59.2979 3.17676 59.9082 4.39746 59.9082 5.84277C59.9082 6.91699 59.4883 7.89844 58.6484 8.78711C57.8086 9.66602 56.9199 10.2715 55.9824 10.6035L55.9824 10.6621C57.0957 10.9355 58.1504 11.5361 59.1465 12.4639C60.1426 13.3818 60.6406 14.5244 60.6406 15.8916C60.6406 18.0303 59.9668 19.666 58.6191 20.7988C57.2715 21.9316 55.2158 22.498 52.4521 22.498C51.29 22.498 50.084 22.3223 48.834 21.9707C47.5937 21.6094 46.6123 21.1211 45.8896 20.5059ZM64.3906 22C63.8047 22 63.5117 21.707 63.5117 21.1211L63.5117 1.25781C63.5117 0.671875 63.8047 0.378906 64.3906 0.378906L66.7344 0.378906C67.3203 0.378906 67.6133 0.671875 67.6133 1.25781L67.6133 12.0244C67.6133 12.415 67.5937 12.8057 67.5547 13.1963L67.6133 13.1963L72.2568 7.21973C72.5693 6.81934 72.9502 6.61914 73.3994 6.61914L75.8018 6.61914C76.7002 6.61914 76.8516 6.98047 76.2559 7.70313L71.832 13.0498L76.959 20.916C77.4277 21.6387 77.2764 22 76.5049 22L74 22C73.5117 22 73.1113 21.7461 72.7988 21.2383L69.4736 15.8916L67.6133 18.1328L67.6133 21.1211C67.6133 21.707 67.3203 22 66.7344 22L64.3906 22ZM89 13.0352C88.707 13.0352 88.5605 12.9212 88.5605 12.6934L88.5605 12.0879C88.5605 11.86 88.707 11.7461 89 11.7461L90.0449 11.7461L90.0449 10.291C90.0449 9.20378 90.3379 8.45508 90.9238 8.04492C91.5098 7.62826 92.1803 7.41992 92.9355 7.41992C93.3848 7.41992 93.7461 7.44271 94.0195 7.48828C94.2995 7.53385 94.6283 7.63477 95.0059 7.79102C95.1491 7.84961 95.1914 7.95378 95.1328 8.10352L94.8301 8.875C94.778 9.00521 94.6641 9.03125 94.4883 8.95313C94.3451 8.88802 94.1693 8.82943 93.9609 8.77734C93.7526 8.71875 93.528 8.68945 93.2871 8.68945C92.7467 8.68945 92.3561 8.81966 92.1152 9.08008C91.8809 9.34049 91.7637 9.83854 91.7637 10.5742L91.7637 11.7461L93.5508 11.7461C93.8437 11.7461 93.9902 11.86 93.9902 12.0879L93.9902 12.6934C93.9902 12.9212 93.8437 13.0352 93.5508 13.0352L91.7637 13.0352L91.7637 21.5605C91.7637 21.8535 91.6172 22 91.3242 22L90.4844 22C90.1914 22 90.0449 21.8535 90.0449 21.5605L90.0449 13.0352L89 13.0352ZM95.3184 16.873C95.3184 15.3431 95.722 14.0801 96.5293 13.084C97.3431 12.0814 98.5312 11.5801 100.094 11.5801C101.656 11.5801 102.841 12.0814 103.648 13.084C104.462 14.0801 104.869 15.3431 104.869 16.873C104.869 18.403 104.462 19.6693 103.648 20.6719C102.841 21.668 101.656 22.166 100.094 22.166C98.5312 22.166 97.3431 21.668 96.5293 20.6719C95.722 19.6693 95.3184 18.403 95.3184 16.873ZM97.1348 16.873C97.1348 18.2402 97.4049 19.2526 97.9453 19.9102C98.4857 20.5677 99.2018 20.8965 100.094 20.8965C100.986 20.8965 101.702 20.5677 102.242 19.9102C102.783 19.2526 103.053 18.2402 103.053 16.873C103.053 15.5059 102.783 14.4935 102.242 13.8359C101.702 13.1784 100.986 12.8496 100.094 12.8496C99.2018 12.8496 98.4857 13.1784 97.9453 13.8359C97.4049 14.4935 97.1348 15.5059 97.1348 16.873ZM107.525 22C107.232 22 107.086 21.8535 107.086 21.5605L107.086 9.37305C107.086 9.24284 107.118 9.11914 107.184 9.00195L107.867 7.76172C107.991 7.53385 108.092 7.41992 108.17 7.41992L108.512 7.41992C108.707 7.41992 108.805 7.53385 108.805 7.76172L108.805 21.5605C108.805 21.8535 108.658 22 108.365 22L107.525 22ZM112.018 22C111.725 22 111.578 21.8535 111.578 21.5605L111.578 9.37305C111.578 9.24284 111.611 9.11914 111.676 9.00195L112.359 7.76172C112.483 7.53385 112.584 7.41992 112.662 7.41992L113.004 7.41992C113.199 7.41992 113.297 7.53385 113.297 7.76172L113.297 21.5605C113.297 21.8535 113.15 22 112.857 22L112.018 22ZM115.514 16.873C115.514 15.3431 115.917 14.0801 116.725 13.084C117.538 12.0814 118.727 11.5801 120.289 11.5801C121.852 11.5801 123.036 12.0814 123.844 13.084C124.658 14.0801 125.064 15.3431 125.064 16.873C125.064 18.403 124.658 19.6693 123.844 20.6719C123.036 21.668 121.852 22.166 120.289 22.166C118.727 22.166 117.538 21.668 116.725 20.6719C115.917 19.6693 115.514 18.403 115.514 16.873ZM117.33 16.873C117.33 18.2402 117.6 19.2526 118.141 19.9102C118.681 20.5677 119.397 20.8965 120.289 20.8965C121.181 20.8965 121.897 20.5677 122.437 19.9102C122.978 19.2526 123.248 18.2402 123.248 16.873C123.248 15.5059 122.978 14.4935 122.437 13.8359C121.897 13.1784 121.181 12.8496 120.289 12.8496C119.397 12.8496 118.681 13.1784 118.141 13.8359C117.6 14.4935 117.33 15.5059 117.33 16.873ZM126.461 12.2246C126.376 11.9056 126.464 11.7461 126.725 11.7461L127.75 11.7461C127.984 11.7461 128.131 11.873 128.189 12.127L129.625 18.5723C129.671 18.7611 129.739 19.0573 129.83 19.4609C129.928 19.8646 129.996 20.1608 130.035 20.3496L130.074 20.3496C130.107 20.1673 130.162 19.8939 130.24 19.5293C130.325 19.1647 130.403 18.8457 130.475 18.5723L132.193 12.127C132.258 11.873 132.405 11.7461 132.633 11.7461L133.512 11.7461C133.74 11.7461 133.886 11.873 133.951 12.127L135.67 18.5723C135.742 18.8457 135.816 19.1647 135.895 19.5293C135.979 19.8939 136.038 20.1673 136.07 20.3496L136.109 20.3496C136.148 20.1608 136.214 19.8646 136.305 19.4609C136.402 19.0573 136.474 18.7611 136.52 18.5723L137.955 12.127C138.014 11.873 138.16 11.7461 138.395 11.7461L139.42 11.7461C139.68 11.7461 139.768 11.9056 139.684 12.2246L137.262 21.4043C137.158 21.8014 136.982 22 136.734 22L135.562 22C135.315 22 135.139 21.8014 135.035 21.4043L133.375 14.9492C133.258 14.4935 133.183 14.1745 133.15 13.9922C133.124 13.8099 133.102 13.6374 133.082 13.4746L133.062 13.4746C133.043 13.6374 133.017 13.8099 132.984 13.9922C132.958 14.1745 132.887 14.4935 132.77 14.9492L131.109 21.4043C131.005 21.8014 130.829 22 130.582 22L129.41 22C129.163 22 128.987 21.8014 128.883 21.4043L126.461 12.2246ZM140.826 16.873C140.826 15.2585 141.23 13.9727 142.037 13.0156C142.844 12.0586 144 11.5801 145.504 11.5801C146.754 11.5801 147.789 12.0195 148.609 12.8984C149.436 13.7708 149.85 15.1673 149.85 17.0879C149.85 17.3809 149.716 17.5273 149.449 17.5273L142.643 17.5273C142.753 18.7839 143.092 19.6595 143.658 20.1543C144.225 20.6426 144.866 20.8867 145.582 20.8867C146.337 20.8867 146.917 20.7598 147.32 20.5059C147.724 20.252 148.02 20.0013 148.209 19.7539C148.417 19.4805 148.619 19.4284 148.814 19.5977L149.391 20.0957C149.54 20.2259 149.54 20.4049 149.391 20.6328C149.267 20.8216 148.912 21.1243 148.326 21.541C147.747 21.9577 146.832 22.166 145.582 22.166C143.954 22.166 142.753 21.6875 141.979 20.7305C141.21 19.7734 140.826 18.4876 140.826 16.873ZM142.604 16.2578L148.121 16.2578C148.095 15.3464 147.861 14.5488 147.418 13.8652C146.975 13.1751 146.324 12.8301 145.465 12.8301C144.71 12.8301 144.068 13.084 143.541 13.5918C143.014 14.0931 142.701 14.9818 142.604 16.2578ZM152.545 22C152.252 22 152.105 21.8535 152.105 21.5605L152.105 12.1855C152.105 11.8926 152.252 11.7461 152.545 11.7461L153.365 11.7461C153.658 11.7461 153.805 11.8926 153.805 12.1855L153.805 13.3574L153.844 13.3574C154.156 12.7715 154.524 12.3288 154.947 12.0293C155.37 11.7298 155.898 11.5801 156.529 11.5801C156.946 11.5801 157.239 11.6159 157.408 11.6875C157.558 11.7461 157.613 11.8438 157.574 11.9805L157.35 12.7813C157.317 12.8984 157.232 12.944 157.096 12.918C156.868 12.8724 156.653 12.8496 156.451 12.8496C155.689 12.8496 155.061 13.1947 154.566 13.8848C154.072 14.5684 153.824 15.5026 153.824 16.6875L153.824 21.5605C153.824 21.8535 153.678 22 153.385 22L152.545 22ZM158.756 21.043C158.554 20.8542 158.512 20.6784 158.629 20.5156L159.068 19.9004C159.212 19.7051 159.423 19.7148 159.703 19.9297C160.087 20.2227 160.514 20.457 160.982 20.6328C161.458 20.8086 161.998 20.8965 162.604 20.8965C162.962 20.8965 163.281 20.8542 163.561 20.7695C163.84 20.6784 164.085 20.5124 164.293 20.2715C164.508 20.0306 164.615 19.7083 164.615 19.3047C164.615 19.0703 164.563 18.849 164.459 18.6406C164.361 18.4323 164.205 18.2663 163.99 18.1426C163.782 18.0124 163.577 17.9115 163.375 17.8398C163.043 17.7161 162.711 17.6152 162.379 17.5371C162.053 17.4525 161.624 17.3255 161.09 17.1563C160.732 17.0456 160.393 16.8893 160.074 16.6875C159.755 16.4792 159.475 16.1992 159.234 15.8477C159 15.4961 158.883 15.0111 158.883 14.3926C158.883 13.7611 159.075 13.2174 159.459 12.7617C159.843 12.306 160.325 11.9967 160.904 11.834C161.484 11.6647 162.047 11.5801 162.594 11.5801C163.401 11.5801 164.049 11.6745 164.537 11.8633C165.032 12.0456 165.458 12.2637 165.816 12.5176C166.025 12.6673 166.054 12.8398 165.904 13.0352L165.465 13.6211C165.328 13.8099 165.117 13.8034 164.83 13.6016C164.589 13.4323 164.247 13.2728 163.805 13.123C163.362 12.9733 162.975 12.8984 162.643 12.8984C162.232 12.8984 161.881 12.944 161.588 13.0352C161.295 13.1263 161.057 13.2826 160.875 13.5039C160.693 13.7253 160.602 13.9857 160.602 14.2852C160.602 14.513 160.637 14.7181 160.709 14.9004C160.781 15.0762 160.914 15.2389 161.109 15.3887C161.305 15.5384 161.578 15.6589 161.93 15.75C162.477 15.8932 162.975 16.0234 163.424 16.1406C163.88 16.2578 164.29 16.401 164.654 16.5703C165.13 16.7917 165.494 17.0358 165.748 17.3027C166.008 17.5697 166.187 17.8594 166.285 18.1719C166.383 18.4779 166.432 18.8197 166.432 19.1973C166.432 19.8939 166.223 20.4831 165.807 20.9648C165.396 21.4466 164.937 21.7689 164.43 21.9316C163.922 22.0879 163.31 22.166 162.594 22.166C161.624 22.166 160.79 22.0293 160.094 21.7559C159.404 21.4759 158.958 21.2383 158.756 21.043ZM174.479 19.2656C174.479 18.1068 175.019 17.2572 176.1 16.7168C177.187 16.1764 178.808 15.8607 180.963 15.7695L180.963 15.1055C180.963 14.4935 180.823 13.9661 180.543 13.5234C180.27 13.0742 179.723 12.8496 178.902 12.8496C178.382 12.8496 177.965 12.9017 177.652 13.0059C177.34 13.1035 177.053 13.237 176.793 13.4063C176.539 13.569 176.295 13.7806 176.061 14.041C175.885 14.2363 175.719 14.2461 175.562 14.0703L175.055 13.4844C174.911 13.3216 174.96 13.1263 175.201 12.8984C175.546 12.5729 175.882 12.3288 176.207 12.166C176.533 12.0033 176.936 11.8665 177.418 11.7559C177.906 11.6387 178.401 11.5801 178.902 11.5801C180.263 11.5801 181.233 11.9316 181.812 12.6348C182.392 13.3314 182.682 14.2884 182.682 15.5059L182.682 21.5605C182.682 21.8535 182.535 22 182.242 22L181.363 22C181.109 22 180.982 21.8535 180.982 21.5605L180.982 21.082L180.963 21.082C180.449 21.4857 179.944 21.7689 179.449 21.9316C178.961 22.0879 178.414 22.166 177.809 22.166C176.741 22.166 175.917 21.9121 175.338 21.4043C174.765 20.89 174.479 20.1771 174.479 19.2656ZM176.256 19.3047C176.256 19.7083 176.34 20.0339 176.51 20.2813C176.679 20.5221 176.913 20.6784 177.213 20.75C177.512 20.8151 177.825 20.8477 178.15 20.8477C178.652 20.8477 179.127 20.7988 179.576 20.7012C180.025 20.6035 180.488 20.3464 180.963 19.9297L180.963 17.0488C179.648 17.1465 178.71 17.2669 178.15 17.4102C177.59 17.5469 177.135 17.7878 176.783 18.1328C176.432 18.4714 176.256 18.862 176.256 19.3047ZM184.908 16.873C184.908 15.3431 185.286 14.0801 186.041 13.084C186.803 12.0814 187.965 11.5801 189.527 11.5801C190.582 11.5801 191.386 11.7689 191.939 12.1465C192.499 12.5176 192.903 12.8984 193.15 13.2891C193.287 13.5039 193.258 13.6764 193.062 13.8066L192.447 14.207C192.252 14.3438 192.057 14.2559 191.861 13.9434C191.673 13.6439 191.406 13.3867 191.061 13.1719C190.722 12.957 190.211 12.8496 189.527 12.8496C188.635 12.8496 187.945 13.1784 187.457 13.8359C186.969 14.4935 186.725 15.5059 186.725 16.873C186.725 18.2402 186.969 19.2526 187.457 19.9102C187.945 20.5677 188.635 20.8965 189.527 20.8965C190.25 20.8965 190.803 20.7598 191.187 20.4863C191.572 20.2064 191.852 19.9036 192.027 19.5781C192.197 19.2721 192.389 19.1842 192.604 19.3145L193.258 19.7051C193.453 19.8223 193.482 19.998 193.346 20.2324C193.183 20.5124 192.812 20.9063 192.232 21.4141C191.66 21.9154 190.758 22.166 189.527 22.166C187.965 22.166 186.803 21.668 186.041 20.6719C185.286 19.6693 184.908 18.403 184.908 16.873ZM194.986 13.0352C194.693 13.0352 194.547 12.9212 194.547 12.6934L194.547 12.0879C194.547 11.86 194.693 11.7461 194.986 11.7461L196.139 11.7461L196.139 10.8672C196.139 10.737 196.171 10.6133 196.236 10.4961L196.92 9.25586C197.044 9.02799 197.145 8.91406 197.223 8.91406L197.564 8.91406C197.76 8.91406 197.857 9.02799 197.857 9.25586L197.857 11.7461L199.937 11.7461C200.23 11.7461 200.377 11.86 200.377 12.0879L200.377 12.6934C200.377 12.9212 200.23 13.0352 199.937 13.0352L197.857 13.0352L197.857 19.2559C197.857 19.9395 197.958 20.3854 198.16 20.5938C198.368 20.7956 198.616 20.8965 198.902 20.8965C199.124 20.8965 199.387 20.8314 199.693 20.7012C200.006 20.571 200.221 20.4603 200.338 20.3691C200.455 20.278 200.546 20.3073 200.611 20.457L200.934 21.209C200.986 21.3392 200.947 21.4434 200.816 21.5215C200.562 21.6712 200.191 21.8177 199.703 21.9609C199.215 22.0977 198.727 22.166 198.238 22.166C197.561 22.166 197.04 21.9219 196.676 21.4336C196.318 20.9453 196.139 20.2552 196.139 19.3633L196.139 13.0352L194.986 13.0352ZM203.326 22C203.033 22 202.887 21.8535 202.887 21.5605L202.887 12.1855C202.887 11.8926 203.033 11.7461 203.326 11.7461L204.166 11.7461C204.459 11.7461 204.605 11.8926 204.605 12.1855L204.605 21.5605C204.605 21.8535 204.459 22 204.166 22L203.326 22ZM203.326 9.89063C203.033 9.89063 202.887 9.74414 202.887 9.45117L202.887 8.61133C202.887 8.31836 203.033 8.17188 203.326 8.17188L204.166 8.17188C204.459 8.17188 204.605 8.31836 204.605 8.61133L204.605 9.45117C204.605 9.74414 204.459 9.89063 204.166 9.89063L203.326 9.89063ZM206.598 12.2246C206.487 11.9056 206.575 11.7461 206.861 11.7461L207.926 11.7461C208.134 11.7461 208.281 11.873 208.365 12.127L210.436 18.5723C210.605 19.0996 210.719 19.4642 210.777 19.666C210.842 19.8613 210.901 20.1055 210.953 20.3984L210.992 20.3984C211.044 20.1055 211.1 19.8613 211.158 19.666C211.223 19.4642 211.34 19.0996 211.51 18.5723L213.58 12.127C213.665 11.873 213.811 11.7461 214.02 11.7461L215.084 11.7461C215.37 11.7461 215.458 11.9056 215.348 12.2246L212.145 21.4043C212.008 21.8014 211.832 22 211.617 22L210.328 22C210.113 22 209.937 21.8014 209.801 21.4043L206.598 12.2246ZM216.451 16.873C216.451 15.2585 216.855 13.9727 217.662 13.0156C218.469 12.0586 219.625 11.5801 221.129 11.5801C222.379 11.5801 223.414 12.0195 224.234 12.8984C225.061 13.7708 225.475 15.1673 225.475 17.0879C225.475 17.3809 225.341 17.5273 225.074 17.5273L218.268 17.5273C218.378 18.7839 218.717 19.6595 219.283 20.1543C219.85 20.6426 220.491 20.8867 221.207 20.8867C221.962 20.8867 222.542 20.7598 222.945 20.5059C223.349 20.252 223.645 20.0013 223.834 19.7539C224.042 19.4805 224.244 19.4284 224.439 19.5977L225.016 20.0957C225.165 20.2259 225.165 20.4049 225.016 20.6328C224.892 20.8216 224.537 21.1243 223.951 21.541C223.372 21.9577 222.457 22.166 221.207 22.166C219.579 22.166 218.378 21.6875 217.604 20.7305C216.835 19.7734 216.451 18.4876 216.451 16.873ZM218.229 16.2578L223.746 16.2578C223.72 15.3464 223.486 14.5488 223.043 13.8652C222.6 13.1751 221.949 12.8301 221.09 12.8301C220.335 12.8301 219.693 13.084 219.166 13.5918C218.639 14.0931 218.326 14.9818 218.229 16.2578Z" fill="white"/>
</svg>
