<svg width="48" height="48" viewBox="0 0 48 48" fill="none" xmlns="http://www.w3.org/2000/svg">
<g id="healthicons:miner-worker-outline">
<g id="Group">
<path id="Vector" fill-rule="evenodd" clip-rule="evenodd" d="M24.0009 5.99999C24.2661 5.99999 24.5205 6.10535 24.708 6.29289C24.8955 6.48042 25.0009 6.73478 25.0009 6.99999L25.0009 7.06799C27.7989 7.35999 29.9339 8.56299 31.3239 10.094C32.2799 11.147 32.9129 12.402 33.1119 13.626L33.2199 13.709C34.3439 14.58 35.1689 15.636 34.9729 16.847C34.7839 18.017 33.7269 18.729 32.7429 19.164C32.494 19.2737 32.2404 19.3725 31.9829 19.46C32.0564 20.5533 31.9044 21.65 31.5366 22.6822C31.1687 23.7143 30.5927 24.6599 29.8443 25.4603C29.0959 26.2607 28.1911 26.8987 27.1859 27.335C26.1807 27.7712 25.0967 27.9963 24.0009 27.9963C22.9051 27.9963 21.8211 27.7712 20.8159 27.335C19.8107 26.8987 18.9059 26.2607 18.1575 25.4603C17.4091 24.6599 16.8331 23.7143 16.4652 22.6822C16.0973 21.65 15.9454 20.5533 16.0189 19.46C15.7614 19.3725 15.5078 19.2737 15.2589 19.164C14.2749 18.729 13.2179 18.017 13.0289 16.847C12.8329 15.636 13.6579 14.58 14.7819 13.709L14.9089 13.611C14.9347 13.4518 14.9667 13.2937 15.0049 13.137C15.268 12.0968 15.7489 11.1244 16.4159 10.284C17.7559 8.57599 19.9489 7.19599 23.0009 7.01999L23.0009 6.99999C23.0009 6.73478 23.1062 6.48042 23.2938 6.29289C23.4813 6.10535 23.7357 5.99999 24.0009 5.99999ZM31.6609 16.44C31.8655 16.5141 32.0887 16.5194 32.2966 16.4551C32.5045 16.3909 32.6858 16.2606 32.8129 16.084C33.0099 16.359 33.0029 16.505 32.9989 16.528C32.9859 16.608 32.8329 16.938 31.9339 17.336C30.8849 17.8 29.3069 18.136 27.4969 18.326C27.4539 17.4277 27.0668 16.5805 26.4159 15.96C25.765 15.3394 24.9002 14.9933 24.0009 14.9933C23.1016 14.9933 22.2368 15.3394 21.5859 15.96C20.935 16.5805 20.5479 17.4277 20.5049 18.326C18.6949 18.136 17.1169 17.8 16.0679 17.336C15.1689 16.938 15.0159 16.608 15.0029 16.528C14.9989 16.505 14.9919 16.36 15.1889 16.084C15.3301 16.2808 15.5378 16.4196 15.7737 16.4748C16.0095 16.53 16.2573 16.4977 16.4711 16.3839C16.6849 16.2702 16.8502 16.0827 16.9362 15.8563C17.0222 15.6299 17.0232 15.38 16.9389 15.153C16.8189 14.829 16.7819 14.292 16.9479 13.61C17.1439 12.8473 17.499 12.1347 17.9899 11.519L18.0009 11.505L18.0009 13.5C18.0009 13.7652 18.1062 14.0196 18.2938 14.2071C18.4813 14.3946 18.7357 14.5 19.0009 14.5C19.2661 14.5 19.5205 14.3946 19.708 14.2071C19.8955 14.0196 20.0009 13.7652 20.0009 13.5L20.0009 9.84599C20.8229 9.41099 21.8179 9.10699 23.0009 9.02299L23.0009 11.5C23.0009 11.7652 23.1062 12.0196 23.2938 12.2071C23.4813 12.3946 23.7357 12.5 24.0009 12.5C24.2661 12.5 24.5205 12.3946 24.708 12.2071C24.8955 12.0196 25.0009 11.7652 25.0009 11.5L25.0009 9.08099C26.1709 9.22799 27.1689 9.56299 28.0009 10.011L28.0009 13.5C28.0009 13.7652 28.1062 14.0196 28.2938 14.2071C28.4813 14.3946 28.7357 14.5 29.0009 14.5C29.2661 14.5 29.5205 14.3946 29.708 14.2071C29.8955 14.0196 30.0009 13.7652 30.0009 13.5L30.0009 11.619C31.1169 12.946 31.3529 14.35 31.0609 15.16C30.9708 15.4093 30.9834 15.6842 31.0959 15.9242C31.2085 16.1642 31.4117 16.3497 31.6609 16.44ZM21.4679 20.915C20.3107 20.8413 19.1591 20.696 18.0199 20.48C18.1399 21.9839 18.822 23.3875 19.9304 24.411C21.0389 25.4345 22.4922 26.0029 24.0009 26.0029C25.5096 26.0029 26.9629 25.4345 28.0714 24.411C29.1798 23.3875 29.8619 21.9839 29.9819 20.48C28.9219 20.688 27.7479 20.832 26.5339 20.915C26.2074 21.2583 25.8145 21.5315 25.379 21.7181C24.9435 21.9046 24.4746 22.0005 24.0009 22C23.5271 22.0005 23.0583 21.9046 22.6228 21.7181C22.1873 21.5315 21.7944 21.2583 21.4679 20.915ZM25.5009 18.5C25.5009 18.8978 25.3429 19.2793 25.0616 19.5607C24.7802 19.842 24.3987 20 24.0009 20C23.6031 20 23.2215 19.842 22.9402 19.5607C22.6589 19.2793 22.5009 18.8978 22.5009 18.5C22.5009 18.1022 22.6589 17.7206 22.9402 17.4393C23.2215 17.158 23.6031 17 24.0009 17C24.3987 17 24.7802 17.158 25.0616 17.4393C25.3429 17.7206 25.5009 18.1022 25.5009 18.5Z" fill="white"/>
<path id="Vector_2" d="M24 39C24.5304 39 25.0391 38.7893 25.4142 38.4142C25.7893 38.0391 26 37.5304 26 37C26 36.4696 25.7893 35.9609 25.4142 35.5858C25.0391 35.2107 24.5304 35 24 35C23.4696 35 22.9609 35.2107 22.5858 35.5858C22.2107 35.9609 22 36.4696 22 37C22 37.5304 22.2107 38.0391 22.5858 38.4142C22.9609 38.7893 23.4696 39 24 39Z" fill="white"/>
<path id="Vector_3" fill-rule="evenodd" clip-rule="evenodd" d="M19.534 28.4L23 31L25 31L28.466 28.4C34.561 29.376 42 32.09 42 36L42 42L6 42L6 36C6 32.09 13.439 29.376 19.534 28.4ZM25.667 33L28.977 30.517C29.98 30.701 31.001 30.932 32 31.203L32 40L34 40L34 31.815C34.7 32.055 35.371 32.316 36 32.597L36 40L12 40L12 32.597C12.629 32.317 13.3 32.055 14 31.815L14 40L16 40L16 31.203C16.999 30.932 18.02 30.701 19.023 30.517L22.333 33L25.667 33ZM39.305 34.69C39.869 35.274 40 35.705 40 36L40 40L38 40L38 33.656C38.54 34.002 38.976 34.35 39.305 34.691L39.305 34.69ZM8.695 34.69C9.025 34.35 9.461 34.002 10 33.656L10 40L8 40L8 36C8 35.705 8.13 35.274 8.695 34.69Z" fill="white"/>
</g>
</g>
</svg>
