<svg width="50" height="55" viewBox="0 0 50 55" fill="none" xmlns="http://www.w3.org/2000/svg">
<g id="emojione-monotone:newspaper">
<path id="Vector" d="M44.7236 20.8158C45.4837 18.5573 45.7033 16.4037 45.1572 14.471C44.9056 14.4959 44.6447 14.5088 44.3775 14.5088C36.3759 14.5088 22.2337 3.44264 21.1634 1.71873C16.7533 8.78538 7.5095 14.2183 3.33138 20.3113C1.64075 22.7769 0.795442 24.6116 2.47747 27.4321L20.0939 52.3308C20.8884 53.5141 22.4454 53.6104 23.554 52.519C23.554 52.519 38.0009 32.1269 48.4376 25.8173C47.6533 24.1321 46.3478 22.4503 44.7236 20.8158ZM19.7868 47.0542L19.7134 47.1101L19.647 47.1737C19.3777 47.4393 19.1385 47.7397 18.9345 48.0683L3.67044 26.4954C2.57122 24.6245 2.88294 23.6397 4.50091 21.2815C6.33607 18.6063 9.26888 16.0093 12.3743 13.2601C15.6025 10.4019 18.9275 7.45936 21.3697 4.11123C25.4009 7.76014 36.6767 15.8168 43.9728 16.1115C44.8478 25.5621 27.0337 41.494 19.7868 47.0542Z" fill="white"/>
<path id="Vector_2" d="M15.6187 12.167L35.3102 29.1397L36.0117 28.4487L16.1313 11.6617L15.6187 12.167ZM22.0359 21.2016L13.9766 13.7835C13.9766 13.7835 11.1719 15.7532 7.775 20.0733L14.925 28.2047L22.0359 21.2016ZM4.37891 24.114L19.5883 44.6196L22.3969 41.855L6.18125 21.4612C6.18125 21.4612 4.76797 22.3025 4.37891 24.114ZM21.4211 25.2897L30.2563 34.1155L33.0633 31.3508L23.8641 22.8843L21.4211 25.2897ZM16.5352 30.1013L24.6422 39.6438L27.4484 36.8801L18.9781 27.6959L16.5352 30.1013ZM21.7625 9.24342L20.5711 12.9233L21.318 13.5214L25.1109 9.78569L24.3688 9.27178L21.7555 11.8456L22.9109 8.25858L22.1359 7.72061L18.5211 11.2801L19.1687 11.7983L21.7625 9.24342ZM25.0086 16.4819L25.732 15.7678L23.525 14.0422L24.5258 13.0573L26.4859 14.5337L27.182 13.8471L25.2 12.3913L26.0266 11.5783L28.2211 13.1398L28.9336 12.4394L25.8992 10.3323L22.057 14.1161L25.0086 16.4819ZM27.3594 18.3657L30.3586 16.3676L31.3406 15.6836L30.6891 16.61L28.7594 19.4898L29.6914 20.2365L35.4633 16.9718L34.368 16.2112L31.2031 18.2033L30.3953 18.7412L30.9375 17.9566L32.8133 15.1319L31.7602 14.4014L28.8344 16.396L28.057 16.9365L28.5922 16.188L30.3641 13.432L29.3766 12.7462L26.5164 17.6902L27.3594 18.3657ZM38.2078 18.6527C37.4977 18.162 36.8344 17.9274 36.2141 17.9412C35.5984 17.9558 35.0937 18.1594 34.6961 18.5513C34.2594 18.981 34.1125 19.427 34.2563 19.8894C34.3406 20.1669 34.6094 20.5683 35.068 21.0994L35.5422 21.6476C35.825 21.9708 36.007 22.2355 36.0867 22.4383C36.1648 22.6437 36.1266 22.8233 35.9727 22.9745C35.7094 23.2332 35.3664 23.2822 34.9453 23.124C34.6835 23.0148 34.4368 22.8659 34.2125 22.6815C33.7672 22.3326 33.5508 21.9965 33.5562 21.6726C33.5594 21.4955 33.6477 21.2927 33.8203 21.0641L32.7961 20.2787C32.3344 20.7333 32.1594 21.2403 32.275 21.8032C32.3914 22.3712 32.7875 22.9315 33.475 23.4833C34.1602 24.0358 34.8422 24.3315 35.5125 24.3641C36.1898 24.3959 36.7477 24.2 37.1773 23.7746C37.5992 23.3604 37.7492 22.9152 37.6289 22.4417C37.5523 22.1383 37.3375 21.7851 36.9906 21.383L36.2133 20.4806C35.9172 20.1403 35.7406 19.904 35.6805 19.769C35.5867 19.5637 35.6203 19.3823 35.782 19.2242C35.9578 19.0506 36.1828 18.9801 36.4578 19.0102C36.7367 19.0403 37.0273 19.1632 37.3312 19.378C37.607 19.574 37.8016 19.7768 37.9102 19.9865C38.0781 20.3027 38.0313 20.6078 37.7734 20.8974L38.9273 21.7336C39.407 21.2248 39.557 20.686 39.3781 20.1197C39.2031 19.5585 38.8117 19.0687 38.2078 18.6527Z" fill="white"/>
</g>
</svg>
