<svg width="36" height="36" viewBox="0 0 36 36" fill="none" xmlns="http://www.w3.org/2000/svg">
<path id="Vector" d="M26.4205 23.2722C28.5991 20.299 29.5749 16.6126 29.1526 12.9508C28.7303 9.28886 26.9412 5.92145 24.1431 3.52224C21.345 1.12302 17.7443 -0.131074 14.0614 0.0108553C10.3785 0.152785 6.88493 1.68027 4.27971 4.28772C1.6745 6.89516 0.149728 10.3903 0.0104543 14.0738C-0.12882 17.7573 1.12767 21.3576 3.52856 24.1544C5.92944 26.9512 9.29765 28.7382 12.9593 29.1579C16.621 29.5776 20.3061 28.5991 23.2774 26.4181L23.2751 26.4181C23.3426 26.5081 23.4146 26.5936 23.4956 26.6768L32.1578 35.3402C32.5797 35.7625 33.152 35.9998 33.7488 36C34.3457 36.0002 34.9181 35.7633 35.3403 35.3414C35.7625 34.9194 35.9998 34.347 36 33.7501C36.0002 33.1532 35.7633 32.5806 35.3414 32.1584L26.6793 23.495C26.5988 23.4136 26.5123 23.3406 26.4205 23.2722ZM27.001 14.6223C27.001 16.2476 26.6809 17.857 26.0591 19.3585C25.4372 20.8601 24.5257 22.2244 23.3766 23.3737C22.2275 24.5229 20.8633 25.4346 19.362 26.0565C17.8607 26.6785 16.2515 26.9986 14.6265 26.9986C13.0014 26.9986 11.3923 26.6785 9.89094 26.0565C8.38959 25.4346 7.02543 24.5229 5.87635 23.3737C4.72727 22.2244 3.81577 20.8601 3.19389 19.3585C2.57201 17.857 2.25194 16.2476 2.25194 14.6223C2.25194 11.3399 3.55568 8.19199 5.87635 5.87099C8.19703 3.54999 11.3445 2.24606 14.6265 2.24606C17.9084 2.24606 21.0559 3.54999 23.3766 5.87099C25.6973 8.19199 27.001 11.3399 27.001 14.6223Z" fill="white"/>
</svg>
